<svg width="96" height="96" viewBox="0 0 96 96" fill="none" xmlns="http://www.w3.org/2000/svg">
<g clip-path="url(#clip0_3_17)">
<circle cx="48" cy="48" r="36.1875" fill="#0D9488"/>
<path d="M42.7692 55.6103V54.9311C42.7825 52.6007 42.9889 50.743 43.3884 49.358C43.8012 47.9731 44.4005 46.8545 45.1862 46.0022C45.9719 45.1499 46.9173 44.3776 48.0226 43.6851C48.8483 43.1524 49.5874 42.5998 50.2399 42.0272C50.8924 41.4545 51.4118 40.822 51.7979 40.1295C52.1841 39.4237 52.3772 38.6381 52.3772 37.7725C52.3772 36.8536 52.1575 36.0479 51.718 35.3555C51.2786 34.663 50.686 34.1303 49.9403 33.7575C49.2078 33.3846 48.3955 33.1982 47.5033 33.1982C46.6377 33.1982 45.8187 33.3912 45.0463 33.7774C44.274 34.1503 43.6414 34.7096 43.1487 35.4553C42.656 36.1878 42.3896 37.1 42.3497 38.1919H34.1998C34.2664 35.5286 34.9056 33.3313 36.1175 31.6001C37.3293 29.8556 38.9339 28.5573 40.9315 27.705C42.929 26.8394 45.1329 26.4066 47.5432 26.4066C50.1933 26.4066 52.537 26.8461 54.5745 27.725C56.612 28.5906 58.21 29.849 59.3685 31.5003C60.5271 33.1515 61.1064 35.1424 61.1064 37.4728C61.1064 39.0309 60.8467 40.4158 60.3273 41.6277C59.8213 42.8262 59.1088 43.8915 58.19 44.8237C57.2711 45.7425 56.1858 46.5748 54.934 47.3206C53.882 47.9465 53.0164 48.599 52.3373 49.2781C51.6714 49.9573 51.1721 50.743 50.8391 51.6352C50.5195 52.5274 50.3531 53.6261 50.3398 54.9311V55.6103H42.7692ZM46.7243 68.3944C45.3926 68.3944 44.254 67.9283 43.3085 66.9961C42.3763 66.0506 41.9169 64.9187 41.9302 63.6003C41.9169 62.2953 42.3763 61.1767 43.3085 60.2445C44.254 59.3123 45.3926 58.8462 46.7243 58.8462C47.9893 58.8462 49.1013 59.3123 50.0601 60.2445C51.0189 61.1767 51.505 62.2953 51.5183 63.6003C51.505 64.4792 51.2719 65.2849 50.8192 66.0173C50.3797 66.7364 49.8004 67.3157 49.0813 67.7551C48.3622 68.1813 47.5765 68.3944 46.7243 68.3944Z" fill="white"/>
</g>
<defs>
<clipPath id="clip0_3_17">
<rect width="96" height="96" fill="white"/>
</clipPath>
</defs>
</svg>
